<?xml version="1.0" encoding="UTF-8"?>
<svg version="1.1" xmlns="http://www.w3.org/2000/svg" width="1200" height="827">
<path d="M0 0 C152.46 0 304.92 0 462 0 C462 65.34 462 130.68 462 198 C431.97 198 401.94 198 371 198 C373.165625 206.6625 375.33125 215.325 377.5625 224.25 C378.70368286 228.81581909 378.70368286 228.81581909 379.86791992 233.47387695 C383.61814018 248.47819818 387.37049664 263.48198014 391.12756348 278.48458862 C402.49182881 323.86433911 413.80009981 369.25691946 424.9677887 414.68547249 C427.28948024 424.12931105 429.62497026 433.56942239 432 443 C435.12804046 434.15660649 437.46472691 425.10270572 439.8828125 416.046875 C440.36974158 414.23144106 440.85692066 412.41607415 441.34432983 410.60076904 C442.39087709 406.70098156 443.43573042 402.80074572 444.47924805 398.90014648 C446.15079085 392.65210917 447.82608318 386.40508098 449.50195312 380.15820312 C451.54727716 372.53325644 453.59175052 364.90808272 455.63510513 357.28260803 C459.19605158 343.99408251 462.76358847 330.70733945 466.3359375 317.421875 C466.59118824 316.47259377 466.84643898 315.52331253 467.10942459 314.5452652 C468.39273051 309.77278379 469.67616392 305.00033668 470.95965576 300.22790527 C473.29628857 291.53931206 475.63177541 282.85041078 477.96736526 274.16153717 C479.26986481 269.31601259 480.57243598 264.47050725 481.875 259.625 C482.39583368 257.68750009 482.91666701 255.75000009 483.4375 253.8125 C484.47916667 249.9375 485.52083333 246.0625 486.5625 242.1875 C486.82031533 241.2284268 487.07813066 240.2693536 487.34375858 239.28121758 C487.86456297 237.34382557 488.3853677 235.40643365 488.90617275 233.46904182 C490.20870161 228.62364025 491.51122471 223.77823712 492.81373596 218.93283081 C495.15215973 210.23380094 497.49062253 201.53478156 499.8293047 192.83582115 C501.12451326 188.01815936 502.41968749 183.20048835 503.71484375 178.3828125 C503.97156294 177.42788029 504.22828213 176.47294807 504.49278069 175.48907852 C508.24444392 161.5335362 511.99411257 147.57745898 515.74275589 133.62110519 C535.06556072 61.68306754 535.06556072 61.68306754 544.5 26.875 C544.83637482 25.63304871 545.17274963 24.39109741 545.51931763 23.11151123 C546.43892298 19.71728708 547.35979139 16.32340893 548.28125 12.9296875 C548.54659042 11.95028198 548.81193085 10.97087646 549.08531189 9.96179199 C549.3259285 9.077052 549.5665451 8.19231201 549.81445312 7.28076172 C550.02106567 6.51980194 550.22767822 5.75884216 550.44055176 4.974823 C550.91422442 3.30278331 551.45044723 1.64865832 552 0 C613.38 0 674.76 0 738 0 C740.69848026 9.44468093 743.267319 18.84863101 745.58984375 28.3828125 C745.92941782 29.76755398 746.2692759 31.15222584 746.60939026 32.53683472 C747.33842309 35.50632725 748.06602806 38.47616422 748.79248047 41.44628906 C750.79067094 49.61439294 752.79971901 57.77983103 754.80859375 65.9453125 C755.01879025 66.79999367 755.22898674 67.65467484 755.44555283 68.53525543 C760.18942171 87.81981031 765.00853634 107.08534996 769.83577347 126.3491745 C776.79617737 154.12707145 783.70876966 181.91594412 790.54693604 209.72418213 C797.24003111 236.9406788 804.02200983 264.13433618 810.83319092 291.32150269 C815.56716961 310.21871432 820.28849492 329.11876092 824.9453125 348.03515625 C825.14482765 348.84544659 825.3443428 349.65573692 825.54990387 350.49058151 C827.434724 358.14663042 829.3170788 365.80327606 831.19268417 373.46158791 C836.96354588 397.01682305 842.95814423 420.51292441 849 444 C849.43621353 442.37728565 849.87242705 440.7545713 850.30864048 439.13185692 C850.71144357 437.63342976 851.11424701 436.13500269 851.51705074 434.6365757 C852.69986181 430.2365248 853.88266608 425.83647208 855.06546021 421.43641663 C857.53598196 412.24597506 860.00655529 403.05554736 862.4773283 393.86517334 C863.93022872 388.46090506 865.38309223 383.05662686 866.8359375 377.65234375 C867.13114603 376.55423119 867.42635456 375.45611862 867.7305088 374.32472992 C871.77186684 359.29147955 875.81149556 344.25776563 879.84959793 329.22364044 C897.51014548 263.47379917 897.51014548 263.47379917 904.125 239.05078125 C904.30625427 238.38156332 904.48750854 237.71234539 904.67425537 237.02284813 C908.10839502 224.3464527 911.55571181 211.67364294 915 199 C886.62 198.67 858.24 198.34 829 198 C829 132.66 829 67.32 829 0 C891.63010384 -0.04033135 891.63010384 -0.04033135 918.51171875 -0.04882812 C924.65673831 -0.05078382 930.80175784 -0.05280368 936.94677734 -0.05493164 C938.10087418 -0.05532726 938.10087418 -0.05532726 939.2782861 -0.05573088 C949.95215201 -0.05947076 960.62601409 -0.06559937 971.29987752 -0.07373433 C989.75200114 -0.0877947 1008.20412071 -0.09694444 1026.65625 -0.09765625 C1027.3790759 -0.09769482 1028.10190181 -0.09773339 1028.84663153 -0.09777313 C1082.5688955 -0.09969062 1136.28240832 0.25651601 1190 1 C1190.02332588 26.53795362 1190.04097764 52.07590565 1190.05181217 77.61386776 C1190.05697579 89.47069085 1190.06401974 101.32750733 1190.07543945 113.18432617 C1190.08538428 123.51470159 1190.09185295 133.84507222 1190.09408849 144.17545229 C1190.09539594 149.64893057 1190.09848395 155.12239516 1190.10573006 160.59586906 C1190.1124871 165.74132097 1190.11461761 170.88675348 1190.11310768 176.0322094 C1190.11338415 177.92654526 1190.11539114 179.82088173 1190.11920547 181.71521378 C1190.1241378 184.28977601 1190.12300001 186.86426377 1190.12025452 189.43882751 C1190.12316736 190.19854054 1190.1260802 190.95825356 1190.12908131 191.74098819 C1190.11412121 196.88587879 1190.11412121 196.88587879 1189 198 C1186.04753646 198.09526806 1183.11851579 198.12552452 1180.16577148 198.11352539 C1179.23903625 198.11367142 1178.31230103 198.11381744 1177.35748291 198.1139679 C1174.27866313 198.11326838 1171.19990303 198.10547421 1168.12109375 198.09765625 C1165.99259982 198.09579221 1163.86410547 198.09436824 1161.73561096 198.09336853 C1156.1213768 198.08954228 1150.50716832 198.07971108 1144.89294434 198.06866455 C1139.16886747 198.05845273 1133.44478647 198.0538714 1127.72070312 198.04882812 C1116.48045744 198.03808891 1105.24023085 198.0210112 1094 198 C1093.86229187 198.88655273 1093.86229187 198.88655273 1093.72180176 199.79101562 C1092.20382788 208.84224644 1089.83222435 217.64334526 1087.46875 226.5 C1087.00493598 228.2509942 1086.54152792 230.00209598 1086.07849121 231.7532959 C1085.08156163 235.52065493 1084.08207614 239.28732278 1083.08056641 243.0534668 C1081.46992564 249.11066452 1079.86522016 255.16942453 1078.26171875 261.22851562 C1077.70703287 263.32434125 1077.15234536 265.42016644 1076.59765625 267.51599121 C1076.31978271 268.56594772 1076.04190918 269.61590424 1075.75561523 270.69767761 C1074.89868399 273.93483144 1074.04120129 277.17183876 1073.18359375 280.40881348 C1067.63093327 301.37054195 1062.12301747 322.34393517 1056.62133789 343.3190918 C1053.89498951 353.7131472 1051.16656252 364.10665692 1048.4375 374.5 C1048.16805069 375.52618942 1047.89860138 376.55237885 1047.62098694 377.60966492 C1041.76471682 399.91103426 1035.88420894 422.20598904 1030 444.5 C1021.56116904 476.4733614 1013.14628903 508.4529403 1004.75 540.4375 C1004.47502686 541.48497406 1004.20005371 542.53244812 1003.91674805 543.61166382 C1003.08772248 546.76975363 1002.25870472 549.92784549 1001.4296875 553.0859375 C1000.34376515 557.22266023 999.25782614 561.35937858 998.171875 565.49609375 C997.90634323 566.50760372 997.64081146 567.51911369 997.36723328 568.56127548 C991.85923261 589.5426679 986.33965837 610.52100553 980.81546021 631.49813843 C975.98815216 649.82915269 971.16873386 668.16221099 966.36040878 686.49821472 C965.50744257 689.75068061 964.65428397 693.00309596 963.80105591 696.25549316 C963.37624782 697.87482128 963.37624782 697.87482128 962.94285774 699.5268631 C962.36979995 701.71128792 961.7967345 703.89571072 961.22366142 706.08013153 C959.6196632 712.1946984 958.01663698 718.30951818 956.41526794 724.42477417 C948.05845694 756.31512332 939.53004423 788.15450156 931 820 C844.21 820 757.42 820 668 820 C662.25590965 799.32127474 662.25590965 799.32127474 659.77922058 789.38430786 C659.49318334 788.24469003 659.20714611 787.10507219 658.91244107 785.93092048 C657.97222296 782.18252194 657.03528054 778.43331321 656.09838867 774.68408203 C655.41829596 771.96862973 654.7375185 769.2533492 654.05679321 766.53805542 C652.41175574 759.97437748 650.7692696 753.41006382 649.12784364 746.84548189 C647.79425024 741.51206356 646.45990906 736.17883286 645.12505531 730.84572983 C641.33416216 715.69971708 637.54521641 700.55321914 633.75880917 685.40608431 C633.55553349 684.59290169 633.35225781 683.77971906 633.14282227 682.94189453 C632.93929735 682.12771312 632.73577244 681.31353172 632.52608011 680.47467814 C629.2161434 667.23411565 625.90149366 653.99473807 622.5847493 640.75587942 C619.17292239 627.13726813 615.76459037 613.51778637 612.35992223 599.89738357 C610.450735 592.25997057 608.54009815 584.62292698 606.62569237 576.98682022 C604.99913016 570.49873828 603.3758031 564.00985775 601.75671842 557.51990558 C600.93072814 554.20939765 600.1032107 550.8992911 599.27161217 547.59018707 C598.3720245 544.007165 597.47819796 540.42275474 596.58586121 536.83792114 C596.32079637 535.78794893 596.05573154 534.73797673 595.78263444 533.65618718 C595.54536364 532.69790638 595.30809284 531.73962559 595.06363201 530.75230598 C594.85673675 529.92515968 594.64984149 529.09801338 594.43667668 528.24580204 C594 526 594 526 594 522 C593.34 522 592.68 522 592 522 C591.87492569 522.99420959 591.74985138 523.98841919 591.62098694 525.01275635 C591.04668981 529.01352506 590.09707143 532.89194457 589.06420898 536.79589844 C588.8679788 537.5501583 588.67174862 538.30441816 588.46957207 539.08153439 C587.81545997 541.59180065 587.15580579 544.10057512 586.49609375 546.609375 C586.02549827 548.41030298 585.55522546 550.21131529 585.08525085 552.0124054 C583.80848349 556.90106282 582.52673844 561.78840272 581.24399567 566.67549515 C580.15836751 570.81410268 579.0756262 574.95346323 577.99287415 579.09282398 C569.43845453 611.79476163 560.82786146 644.48197953 552.19238281 677.16259766 C551.19975489 680.91956601 550.20724092 684.67656444 549.21484375 688.43359375 C548.96787373 689.36856941 548.7209037 690.30354507 548.46644974 691.26685333 C544.53681912 706.14691382 540.62859829 721.03252198 536.73015594 735.92078209 C535.82261204 739.38645795 534.91469436 742.85203567 534.00665283 746.31758118 C533.40856403 748.60030989 532.81048051 750.88303999 532.21240234 753.16577148 C531.91857414 754.287231 531.62474594 755.40869051 531.32201385 756.56413364 C529.58524864 763.19410477 527.85118194 769.8247747 526.11902332 776.45595074 C525.04614849 780.56074089 523.97082767 784.66488748 522.89488029 788.76887321 C522.3961613 790.67332997 521.89849786 792.57806351 521.40197945 794.48309517 C520.7195603 797.10095311 520.03342498 799.71781095 519.34643555 802.33447266 C519.15174746 803.08510011 518.95705936 803.83572756 518.75647163 804.6091013 C517.37622689 809.84429641 515.72113597 814.83659208 514 820 C427.21 820 340.42 820 251 820 C229.98598948 737.11140294 229.98598948 737.11140294 223.54199219 711.29492188 C222.82795421 708.43619687 222.11220313 705.57790194 221.39647043 702.71960086 C217.34698394 686.54245538 213.32980473 670.35748283 209.34854126 654.16340637 C197.67762251 606.69947133 185.84638439 559.27635903 173.97552373 511.86208039 C171.26230631 501.02457884 168.55098187 490.18660394 165.83982678 479.34858631 C161.00889407 460.03664221 156.17722984 440.72488123 151.34472656 421.41333008 C150.91588881 419.69961425 150.91588881 419.69961425 150.47838767 417.9512779 C147.26707369 405.11837503 144.05546545 392.28554584 140.84344482 379.45281982 C140.55163774 378.28698593 140.25983065 377.12115204 139.95918093 375.91998985 C139.36994412 373.56586204 138.78070726 371.21173424 138.19147034 368.85760646 C137.90012107 367.69360268 137.60877179 366.52959889 137.30859375 365.33032227 C137.01761021 364.16778164 136.72662667 363.00524101 136.42682545 361.80747188 C131.5835854 342.45750328 126.74214733 323.10708435 121.90219653 303.75629276 C118.93154215 291.8795181 115.95935892 280.00312811 112.9851885 268.12723344 C110.96121219 260.0449807 108.93890834 251.96231072 106.91795312 243.87930203 C105.75247759 239.21810627 104.58621533 234.55711089 103.41791725 229.8966217 C102.35078549 225.63963944 101.28578777 221.38212944 100.22254117 217.12417518 C99.8362901 215.57901873 99.44922971 214.03406434 99.06130962 212.48932607 C98.53732867 210.40230373 98.01620657 208.3145886 97.49584007 206.22666264 C97.20485888 205.06403937 96.91387769 203.90141611 96.61407888 202.70356184 C96 200 96 200 96 198 C64.32 198 32.64 198 0 198 C0 132.66 0 67.32 0 0 Z " fill="#33006F" transform="translate(6,4)"/>
<path d="M0 0 C152.46 0 304.92 0 462 0 C462 65.34 462 130.68 462 198 C431.97 198 401.94 198 371 198 C373.165625 206.6625 375.33125 215.325 377.5625 224.25 C378.70368286 228.81581909 378.70368286 228.81581909 379.86791992 233.47387695 C383.61814018 248.47819818 387.37049664 263.48198014 391.12756348 278.48458862 C402.49182881 323.86433911 413.80009981 369.25691946 424.9677887 414.68547249 C427.28948024 424.12931105 429.62497026 433.56942239 432 443 C435.12804046 434.15660649 437.46472691 425.10270572 439.8828125 416.046875 C440.36974158 414.23144106 440.85692066 412.41607415 441.34432983 410.60076904 C442.39087709 406.70098156 443.43573042 402.80074572 444.47924805 398.90014648 C446.15079085 392.65210917 447.82608318 386.40508098 449.50195312 380.15820312 C451.54727716 372.53325644 453.59175052 364.90808272 455.63510513 357.28260803 C459.19605158 343.99408251 462.76358847 330.70733945 466.3359375 317.421875 C466.59118824 316.47259377 466.84643898 315.52331253 467.10942459 314.5452652 C468.39273051 309.77278379 469.67616392 305.00033668 470.95965576 300.22790527 C473.29628857 291.53931206 475.63177541 282.85041078 477.96736526 274.16153717 C479.26986481 269.31601259 480.57243598 264.47050725 481.875 259.625 C482.39583368 257.68750009 482.91666701 255.75000009 483.4375 253.8125 C484.47916667 249.9375 485.52083333 246.0625 486.5625 242.1875 C486.82031533 241.2284268 487.07813066 240.2693536 487.34375858 239.28121758 C487.86456297 237.34382557 488.3853677 235.40643365 488.90617275 233.46904182 C490.20870161 228.62364025 491.51122471 223.77823712 492.81373596 218.93283081 C495.15215973 210.23380094 497.49062253 201.53478156 499.8293047 192.83582115 C501.12451326 188.01815936 502.41968749 183.20048835 503.71484375 178.3828125 C503.97156294 177.42788029 504.22828213 176.47294807 504.49278069 175.48907852 C508.24444392 161.5335362 511.99411257 147.57745898 515.74275589 133.62110519 C535.06556072 61.68306754 535.06556072 61.68306754 544.5 26.875 C544.83637482 25.63304871 545.17274963 24.39109741 545.51931763 23.11151123 C546.43892298 19.71728708 547.35979139 16.32340893 548.28125 12.9296875 C548.54659042 11.95028198 548.81193085 10.97087646 549.08531189 9.96179199 C549.3259285 9.077052 549.5665451 8.19231201 549.81445312 7.28076172 C550.02106567 6.51980194 550.22767822 5.75884216 550.44055176 4.974823 C550.91422442 3.30278331 551.45044723 1.64865832 552 0 C613.38 0 674.76 0 738 0 C740.69848026 9.44468093 743.267319 18.84863101 745.58984375 28.3828125 C745.92941782 29.76755398 746.2692759 31.15222584 746.60939026 32.53683472 C747.33842309 35.50632725 748.06602806 38.47616422 748.79248047 41.44628906 C750.79067094 49.61439294 752.79971901 57.77983103 754.80859375 65.9453125 C755.01879025 66.79999367 755.22898674 67.65467484 755.44555283 68.53525543 C760.18942171 87.81981031 765.00853634 107.08534996 769.83577347 126.3491745 C776.79617737 154.12707145 783.70876966 181.91594412 790.54693604 209.72418213 C797.24003111 236.9406788 804.02200983 264.13433618 810.83319092 291.32150269 C815.56716961 310.21871432 820.28849492 329.11876092 824.9453125 348.03515625 C825.14482765 348.84544659 825.3443428 349.65573692 825.54990387 350.49058151 C827.434724 358.14663042 829.3170788 365.80327606 831.19268417 373.46158791 C836.96354588 397.01682305 842.95814423 420.51292441 849 444 C849.43621353 442.37728565 849.87242705 440.7545713 850.30864048 439.13185692 C850.71144357 437.63342976 851.11424701 436.13500269 851.51705074 434.6365757 C852.69986181 430.2365248 853.88266608 425.83647208 855.06546021 421.43641663 C857.53598196 412.24597506 860.00655529 403.05554736 862.4773283 393.86517334 C863.93022872 388.46090506 865.38309223 383.05662686 866.8359375 377.65234375 C867.13114603 376.55423119 867.42635456 375.45611862 867.7305088 374.32472992 C871.77186684 359.29147955 875.81149556 344.25776563 879.84959793 329.22364044 C897.51014548 263.47379917 897.51014548 263.47379917 904.125 239.05078125 C904.30625427 238.38156332 904.48750854 237.71234539 904.67425537 237.02284813 C908.10839502 224.3464527 911.55571181 211.67364294 915 199 C886.62 198.67 858.24 198.34 829 198 C829 132.66 829 67.32 829 0 C891.63010384 -0.04033135 891.63010384 -0.04033135 918.51171875 -0.04882812 C924.65673831 -0.05078382 930.80175784 -0.05280368 936.94677734 -0.05493164 C938.10087418 -0.05532726 938.10087418 -0.05532726 939.2782861 -0.05573088 C949.95215201 -0.05947076 960.62601409 -0.06559937 971.29987752 -0.07373433 C989.75200114 -0.0877947 1008.20412071 -0.09694444 1026.65625 -0.09765625 C1027.3790759 -0.09769482 1028.10190181 -0.09773339 1028.84663153 -0.09777313 C1082.5688955 -0.09969062 1136.28240832 0.25651601 1190 1 C1190.02332588 26.53795362 1190.04097764 52.07590565 1190.05181217 77.61386776 C1190.05697579 89.47069085 1190.06401974 101.32750733 1190.07543945 113.18432617 C1190.08538428 123.51470159 1190.09185295 133.84507222 1190.09408849 144.17545229 C1190.09539594 149.64893057 1190.09848395 155.12239516 1190.10573006 160.59586906 C1190.1124871 165.74132097 1190.11461761 170.88675348 1190.11310768 176.0322094 C1190.11338415 177.92654526 1190.11539114 179.82088173 1190.11920547 181.71521378 C1190.1241378 184.28977601 1190.12300001 186.86426377 1190.12025452 189.43882751 C1190.12316736 190.19854054 1190.1260802 190.95825356 1190.12908131 191.74098819 C1190.11412121 196.88587879 1190.11412121 196.88587879 1189 198 C1186.04753646 198.09526806 1183.11851579 198.12552452 1180.16577148 198.11352539 C1179.23903625 198.11367142 1178.31230103 198.11381744 1177.35748291 198.1139679 C1174.27866313 198.11326838 1171.19990303 198.10547421 1168.12109375 198.09765625 C1165.99259982 198.09579221 1163.86410547 198.09436824 1161.73561096 198.09336853 C1156.1213768 198.08954228 1150.50716832 198.07971108 1144.89294434 198.06866455 C1139.16886747 198.05845273 1133.44478647 198.0538714 1127.72070312 198.04882812 C1116.48045744 198.03808891 1105.24023085 198.0210112 1094 198 C1093.86229187 198.88655273 1093.86229187 198.88655273 1093.72180176 199.79101562 C1092.20382788 208.84224644 1089.83222435 217.64334526 1087.46875 226.5 C1087.00493598 228.2509942 1086.54152792 230.00209598 1086.07849121 231.7532959 C1085.08156163 235.52065493 1084.08207614 239.28732278 1083.08056641 243.0534668 C1081.46992564 249.11066452 1079.86522016 255.16942453 1078.26171875 261.22851562 C1077.70703287 263.32434125 1077.15234536 265.42016644 1076.59765625 267.51599121 C1076.31978271 268.56594772 1076.04190918 269.61590424 1075.75561523 270.69767761 C1074.89868399 273.93483144 1074.04120129 277.17183876 1073.18359375 280.40881348 C1067.63093327 301.37054195 1062.12301747 322.34393517 1056.62133789 343.3190918 C1053.89498951 353.7131472 1051.16656252 364.10665692 1048.4375 374.5 C1048.16805069 375.52618942 1047.89860138 376.55237885 1047.62098694 377.60966492 C1041.76471682 399.91103426 1035.88420894 422.20598904 1030 444.5 C1021.56116904 476.4733614 1013.14628903 508.4529403 1004.75 540.4375 C1004.47502686 541.48497406 1004.20005371 542.53244812 1003.91674805 543.61166382 C1003.08772248 546.76975363 1002.25870472 549.92784549 1001.4296875 553.0859375 C1000.34376515 557.22266023 999.25782614 561.35937858 998.171875 565.49609375 C997.90634323 566.50760372 997.64081146 567.51911369 997.36723328 568.56127548 C991.85923261 589.5426679 986.33965837 610.52100553 980.81546021 631.49813843 C975.98815216 649.82915269 971.16873386 668.16221099 966.36040878 686.49821472 C965.50744257 689.75068061 964.65428397 693.00309596 963.80105591 696.25549316 C963.37624782 697.87482128 963.37624782 697.87482128 962.94285774 699.5268631 C962.36979995 701.71128792 961.7967345 703.89571072 961.22366142 706.08013153 C959.6196632 712.1946984 958.01663698 718.30951818 956.41526794 724.42477417 C948.05845694 756.31512332 939.53004423 788.15450156 931 820 C844.21 820 757.42 820 668 820 C662.25590965 799.32127474 662.25590965 799.32127474 659.77922058 789.38430786 C659.49318334 788.24469003 659.20714611 787.10507219 658.91244107 785.93092048 C657.97222296 782.18252194 657.03528054 778.43331321 656.09838867 774.68408203 C655.41829596 771.96862973 654.7375185 769.2533492 654.05679321 766.53805542 C652.41175574 759.97437748 650.7692696 753.41006382 649.12784364 746.84548189 C647.79425024 741.51206356 646.45990906 736.17883286 645.12505531 730.84572983 C641.33416216 715.69971708 637.54521641 700.55321914 633.75880917 685.40608431 C633.55553349 684.59290169 633.35225781 683.77971906 633.14282227 682.94189453 C632.93929735 682.12771312 632.73577244 681.31353172 632.52608011 680.47467814 C629.2161434 667.23411565 625.90149366 653.99473807 622.5847493 640.75587942 C619.17292239 627.13726813 615.76459037 613.51778637 612.35992223 599.89738357 C610.450735 592.25997057 608.54009815 584.62292698 606.62569237 576.98682022 C604.99913016 570.49873828 603.3758031 564.00985775 601.75671842 557.51990558 C600.93072814 554.20939765 600.1032107 550.8992911 599.27161217 547.59018707 C598.3720245 544.007165 597.47819796 540.42275474 596.58586121 536.83792114 C596.32079637 535.78794893 596.05573154 534.73797673 595.78263444 533.65618718 C595.54536364 532.69790638 595.30809284 531.73962559 595.06363201 530.75230598 C594.85673675 529.92515968 594.64984149 529.09801338 594.43667668 528.24580204 C594 526 594 526 594 522 C593.34 522 592.68 522 592 522 C591.87492569 522.99420959 591.74985138 523.98841919 591.62098694 525.01275635 C591.04668981 529.01352506 590.09707143 532.89194457 589.06420898 536.79589844 C588.8679788 537.5501583 588.67174862 538.30441816 588.46957207 539.08153439 C587.81545997 541.59180065 587.15580579 544.10057512 586.49609375 546.609375 C586.02549827 548.41030298 585.55522546 550.21131529 585.08525085 552.0124054 C583.80848349 556.90106282 582.52673844 561.78840272 581.24399567 566.67549515 C580.15836751 570.81410268 579.0756262 574.95346323 577.99287415 579.09282398 C569.43845453 611.79476163 560.82786146 644.48197953 552.19238281 677.16259766 C551.19975489 680.91956601 550.20724092 684.67656444 549.21484375 688.43359375 C548.96787373 689.36856941 548.7209037 690.30354507 548.46644974 691.26685333 C544.53681912 706.14691382 540.62859829 721.03252198 536.73015594 735.92078209 C535.82261204 739.38645795 534.91469436 742.85203567 534.00665283 746.31758118 C533.40856403 748.60030989 532.81048051 750.88303999 532.21240234 753.16577148 C531.91857414 754.287231 531.62474594 755.40869051 531.32201385 756.56413364 C529.58524864 763.19410477 527.85118194 769.8247747 526.11902332 776.45595074 C525.04614849 780.56074089 523.97082767 784.66488748 522.89488029 788.76887321 C522.3961613 790.67332997 521.89849786 792.57806351 521.40197945 794.48309517 C520.7195603 797.10095311 520.03342498 799.71781095 519.34643555 802.33447266 C519.15174746 803.08510011 518.95705936 803.83572756 518.75647163 804.6091013 C517.37622689 809.84429641 515.72113597 814.83659208 514 820 C427.21 820 340.42 820 251 820 C229.98598948 737.11140294 229.98598948 737.11140294 223.54199219 711.29492188 C222.82795421 708.43619687 222.11220313 705.57790194 221.39647043 702.71960086 C217.34698394 686.54245538 213.32980473 670.35748283 209.34854126 654.16340637 C197.67762251 606.69947133 185.84638439 559.27635903 173.97552373 511.86208039 C171.26230631 501.02457884 168.55098187 490.18660394 165.83982678 479.34858631 C161.00889407 460.03664221 156.17722984 440.72488123 151.34472656 421.41333008 C150.91588881 419.69961425 150.91588881 419.69961425 150.47838767 417.9512779 C147.26707369 405.11837503 144.05546545 392.28554584 140.84344482 379.45281982 C140.55163774 378.28698593 140.25983065 377.12115204 139.95918093 375.91998985 C139.36994412 373.56586204 138.78070726 371.21173424 138.19147034 368.85760646 C137.90012107 367.69360268 137.60877179 366.52959889 137.30859375 365.33032227 C137.01761021 364.16778164 136.72662667 363.00524101 136.42682545 361.80747188 C131.5835854 342.45750328 126.74214733 323.10708435 121.90219653 303.75629276 C118.93154215 291.8795181 115.95935892 280.00312811 112.9851885 268.12723344 C110.96121219 260.0449807 108.93890834 251.96231072 106.91795312 243.87930203 C105.75247759 239.21810627 104.58621533 234.55711089 103.41791725 229.8966217 C102.35078549 225.63963944 101.28578777 221.38212944 100.22254117 217.12417518 C99.8362901 215.57901873 99.44922971 214.03406434 99.06130962 212.48932607 C98.53732867 210.40230373 98.01620657 208.3145886 97.49584007 206.22666264 C97.20485888 205.06403937 96.91387769 203.90141611 96.61407888 202.70356184 C96 200 96 200 96 198 C64.32 198 32.64 198 0 198 C0 132.66 0 67.32 0 0 Z M30 30 C30 75.54 30 121.08 30 168 C59.7 168 89.4 168 120 168 C120.33 170.64 120.66 173.28 121 176 C121.33262526 177.64603528 121.69670779 179.28630373 122.10408831 180.91544855 C122.32539221 181.81016577 122.54669611 182.70488299 122.77470618 183.62671286 C123.01725818 184.58698446 123.25981017 185.54725607 123.50971222 186.53662682 C123.76888764 187.57854307 124.02806306 188.62045933 124.29509228 189.69394881 C125.16626513 193.19125073 126.04414677 196.68683329 126.92199707 200.1824646 C127.55364229 202.71222154 128.18487548 205.24208139 128.81573153 207.77203524 C130.18878893 213.2756268 131.56533784 218.77833576 132.94418526 224.28047943 C134.99449141 232.46206179 137.03940395 240.64498544 139.08323698 248.82818691 C142.52170836 262.59462183 145.96462361 276.35994175 149.41014099 290.12461472 C152.82198379 303.75476292 156.23208368 317.38534503 159.63978577 331.01652908 C159.85168296 331.86413315 160.06358015 332.71173721 160.28189847 333.58502624 C161.14201189 337.02556172 162.00211368 340.46610011 162.86219962 343.90664246 C170.93086489 376.18311581 179.00463668 408.45830977 187.08097012 440.73286511 C194.26099786 469.4257143 201.43754242 498.11943232 208.61083984 526.81396484 C209.07162992 528.65720596 209.53242001 530.50044707 209.99321014 532.34368818 C210.221013 533.25494032 210.44881586 534.16619246 210.68352184 535.10505831 C211.83018027 539.69189364 212.97684352 544.27872777 214.12351227 548.86556053 C214.34971782 549.77041617 214.57592338 550.67527181 214.80898364 551.60754732 C220.7990362 575.56848727 226.79139444 599.52885056 232.7845397 623.48901713 C233.10415191 624.76680516 233.10415191 624.76680516 233.43022093 626.07040708 C234.28709146 629.49611268 235.14396205 632.92181827 236.00084484 636.3475208 C238.98587338 648.28130794 241.97012197 660.21528988 244.95386972 672.14939732 C248.79726007 687.52176643 252.64224049 702.8937364 256.48998988 718.26501505 C258.52641118 726.40044485 260.56154474 734.53619421 262.59483952 742.672406 C264.1094373 748.73243122 265.62647929 754.79184194 267.14451498 760.85100682 C267.7610673 763.31356935 268.3768137 765.77633381 268.99170738 768.23931102 C269.82241332 771.56622462 270.65596417 774.89241215 271.49028778 778.21842003 C271.73283977 779.19273863 271.97539176 780.16705723 272.22529382 781.17090064 C272.44659772 782.05059676 272.66790161 782.93029287 272.89591169 783.83664644 C273.08645226 784.5982257 273.27699282 785.35980495 273.47330734 786.14446237 C273.95799686 788.07098038 273.95799686 788.07098038 275 790 C346.28 790 417.56 790 491 790 C502.36746937 747.15981863 502.36746937 747.15981863 513.69213867 704.30834961 C514.67493151 700.58159339 515.65785128 696.8548707 516.64086914 693.12817383 C525.24368468 660.51146061 533.80362551 627.88359067 542.3506813 595.25222778 C553.21163548 553.78723015 564.12292032 512.33568406 575.06877136 470.89302063 C577.73071339 460.81362459 580.38749077 450.73288758 583.03859138 440.65063477 C584.20168104 436.22829483 585.36625163 431.80634464 586.53060913 427.38433838 C587.12709918 425.11724664 587.72284384 422.84995863 588.31777954 420.5824585 C589.10444594 417.58440611 589.89368352 414.58704279 590.68359375 411.58984375 C591.02071884 410.3004464 591.02071884 410.3004464 591.36465454 408.98500061 C592.8859912 403.22801761 592.8859912 403.22801761 594 401 C606.21418808 449.83387734 618.42714148 498.66806332 630.63843262 547.50266514 C632.07917725 553.26439293 633.51993214 559.02611816 634.96069336 564.7878418 C635.24753007 565.93492632 635.53436677 567.08201084 635.8298955 568.26385549 C640.4779966 586.85190529 645.12692867 605.43974716 649.77616637 624.02751269 C654.54456342 643.09175855 659.31207089 662.15622672 664.07874781 681.22090274 C667.02148596 692.99048134 669.96492283 704.75988474 672.90924586 716.52906696 C674.92656649 724.59307491 676.94302519 732.65729808 678.95879858 740.72169294 C680.1228523 745.37855006 681.2872931 750.0353095 682.45275497 754.69181442 C683.51904313 758.9521146 684.58425236 763.21268301 685.6485923 767.47347031 C686.03446719 769.01739373 686.42074305 770.561217 686.80745362 772.10493132 C687.33194887 774.19891502 687.85499922 776.29325447 688.37768459 778.38769054 C688.66893009 779.5522928 688.96017558 780.71689505 689.26024669 781.91678828 C689.90326838 784.59683308 690.45948326 787.29741629 691 790 C762.28 790 833.56 790 907 790 C909.00287378 784.65900326 910.76177063 779.57401387 912.1628418 774.09057617 C912.35936403 773.33617028 912.55588627 772.58176439 912.75836372 771.80449772 C913.40932543 769.30167651 914.05422339 766.79733354 914.69921875 764.29296875 C915.16622512 762.49327983 915.63365872 760.69370172 916.10148621 758.89422607 C917.10616841 755.02691276 918.10835035 751.15896371 919.10858154 747.29049683 C921.53940614 737.8904332 923.98415342 728.49398549 926.42767334 719.09721565 C927.27558617 715.83608737 928.12302721 712.5748367 928.97045898 709.31358337 C934.31100576 688.76858907 939.71722322 668.24114822 945.14036942 647.71782684 C947.37854988 639.24707522 949.615004 630.77586749 951.8515625 622.3046875 C952.10058634 621.36157841 952.34961018 620.41846931 952.60618019 619.44678116 C958.84306214 595.8245399 965.04710186 572.19368329 971.25 548.5625 C973.4426349 540.20961614 975.63534707 531.85675256 977.828125 523.50390625 C978.0936681 522.49235662 978.3592112 521.480807 978.63280106 520.43860435 C983.94536966 500.20165514 989.26922492 479.96768708 994.59646606 459.73459625 C999.79497459 439.99018691 1004.98778975 420.24429548 1010.171875 400.49609375 C1010.43860079 399.48003996 1010.70532658 398.46398617 1010.98013496 397.41714287 C1012.07283222 393.25463672 1013.16551369 389.09212643 1014.25818729 384.92961407 C1023.42502313 350.0091866 1032.60083424 315.09114862 1041.8061676 280.18084717 C1042.30879869 278.27464764 1042.81139292 276.36843839 1043.31394958 274.46221924 C1048.61442077 254.35731986 1053.92537425 234.25532069 1059.27734375 214.1640625 C1059.68910406 212.61767391 1060.1008525 211.07128215 1060.5125885 209.52488708 C1062.22228094 203.10474748 1063.93311268 196.68492606 1065.65084934 190.26693344 C1066.47728646 187.17711256 1067.3008353 184.08652141 1068.125 180.99609375 C1068.42055283 179.89580841 1068.71610565 178.79552307 1069.02061462 177.66189575 C1069.41646507 176.17494705 1069.41646507 176.17494705 1069.8203125 174.65795898 C1070.04992676 173.79992172 1070.27954102 172.94188446 1070.51611328 172.05784607 C1071.07629977 170.02784527 1071.07629977 170.02784527 1071 168 C1100.04 168 1129.08 168 1159 168 C1159 122.46 1159 76.92 1159 30 C1060 30 961 30 859 30 C859 75.54 859 121.08 859 168 C906.025 168.495 906.025 168.495 954 169 C939.63865487 222.59999301 939.63865487 222.59999301 935.3515625 238.58984375 C935.05144886 239.70919752 934.75133522 240.82855129 934.44212723 241.98182487 C928.11649263 265.57370155 921.77974597 289.16258415 915.4375 312.75 C915.18265335 313.69781342 914.9278067 314.64562683 914.66523743 315.62216187 C911.55865996 327.17587267 908.45157064 338.72944579 905.3443222 350.28297615 C900.33271588 368.91754883 895.32233557 387.55245119 890.3125 406.1875 C890.05455658 407.14696659 889.79661316 408.10643318 889.53085327 409.09497452 C881.89480123 437.49901563 874.26435714 465.90455813 866.64193344 494.31225967 C865.95264169 496.88107087 865.26327193 499.44986111 864.57388306 502.01864624 C859.03072134 522.67417351 853.50281501 543.33368483 848 564 C844.41016196 551.3519864 841.10890668 538.6531405 837.96875 525.88671875 C837.47303428 523.88025189 836.97705264 521.87385071 836.48083496 519.86750793 C835.39682431 515.48280951 834.3143034 511.09774702 833.23291016 506.71240234 C830.46849676 495.50313543 827.69516934 484.29607127 824.9225769 473.08882523 C824.23880705 470.32489442 823.55516009 467.56093327 822.87161255 464.79694748 C816.73442692 439.9812636 810.5747752 415.1711922 804.40625 390.36328125 C804.17656407 389.43955428 803.94687813 388.51582731 803.71023202 387.56410861 C800.86526135 376.12275555 798.01967323 364.68155609 795.17391866 353.24039799 C790.80880598 335.69058434 786.44504689 318.14043403 782.0811522 300.59031749 C781.35575691 297.67303389 780.63035114 294.75575289 779.90494347 291.83847237 C770.60535921 254.43932294 761.31072352 217.03894632 752.02281809 179.63689476 C750.70194169 174.31789152 749.38073739 168.99896979 748.05938721 163.68008423 C741.29447378 136.44846685 734.53141153 109.21652399 727.84765625 81.96484375 C727.39932726 80.13824739 726.95096889 78.31165825 726.50257874 76.4850769 C724.74621252 69.3283137 722.99125871 62.17124973 721.25052929 55.01066494 C720.75776409 52.98616194 720.26299708 50.96216127 719.76731873 48.93836975 C719.19179955 46.58762009 718.61980718 44.23600237 718.05238342 41.88328552 C717.8067717 40.88370316 717.56115997 39.88412079 717.30810547 38.85424805 C717.101362 38.00364304 716.89461853 37.15303802 716.68161011 36.2766571 C715.96335664 33.64022676 715.96335664 33.64022676 714 30 C668.13 30 622.26 30 575 30 C566.41673206 60.89728122 566.41673206 60.89728122 558.0793457 91.85888672 C557.6868653 93.33869651 557.2943361 94.81849336 556.90176392 96.29827881 C556.70356174 97.04555992 556.50535957 97.79284103 556.30115128 98.56276703 C554.3380544 105.95969996 552.36763733 113.35469001 550.3984375 120.75 C550.17478579 121.59013515 549.95113407 122.43027031 549.72070503 123.29586411 C544.78583283 141.83155497 539.80440272 160.3545997 534.8125 178.875 C534.37937686 180.4821452 533.94626126 182.08929242 533.51315308 183.69644165 C530.32275349 195.53500132 530.32275349 195.53500132 528.86112022 200.95774269 C523.41090474 221.17849043 517.97437526 241.4029138 512.53878784 261.62759781 C511.22121687 266.52998312 509.90356993 271.43234801 508.5859375 276.3347168 C506.99182335 282.2657852 505.39772568 288.19685803 503.80368042 294.12794495 C500.34418043 306.99982611 496.88378038 319.87146502 493.42276573 332.742939 C491.31465833 340.58301722 489.20668446 348.42313135 487.09873581 356.26325226 C486.57466571 358.21242677 486.05058989 360.16159975 485.52650833 362.11077118 C479.75892346 383.56178446 473.99432777 405.01358947 468.2421875 426.46875 C467.77295803 428.21876626 467.30372485 429.96878152 466.83448792 431.71879578 C464.08651577 441.9676534 464.08651577 441.9676534 461.34017944 452.21694946 C456.55825296 470.06851902 451.75951966 487.9152324 446.90947151 505.74843025 C446.19156057 508.38866941 445.47426227 511.0290742 444.75718689 513.66954041 C444.28970689 515.39077854 443.8222234 517.11201574 443.35473633 518.83325195 C443.01237835 520.09387341 443.01237835 520.09387341 442.66310406 521.37996197 C441.3237047 526.30985219 439.97959082 531.23842671 438.63189411 536.16605473 C437.81007162 539.17469757 436.99230251 542.18443128 436.17560005 545.19446754 C435.79708583 546.58592403 435.41678906 547.97689701 435.03458977 549.36734581 C434.51405819 551.26170369 434.00025707 553.15790716 433.48681641 555.05419922 C433.19787506 556.11259003 432.90893372 557.17098083 432.61123657 558.26144409 C431.85477556 561.18300018 431.85477556 561.18300018 432 565 C431.34 565 430.68 565 430 565 C429.90517334 563.80503906 429.81034668 562.61007812 429.71264648 561.37890625 C428.96960592 554.75664676 427.2449119 548.38098793 425.59765625 541.9375 C425.24508516 540.53955482 424.89309085 539.14146407 424.54162598 537.74324036 C423.78597985 534.74129317 423.02683483 531.74026168 422.2649231 528.73989868 C421.03533615 523.89681701 419.81445361 519.05156778 418.59545898 514.20581055 C418.38824502 513.38212951 418.18103106 512.55844847 417.96753788 511.7098074 C417.54540682 510.03169848 417.12330978 508.353581 416.70124626 506.67545509 C416.05814727 504.11941856 415.41433658 501.5635621 414.770401 499.00773621 C410.82562988 483.34427735 406.95116093 467.66392868 403.09507751 451.97843933 C401.4245113 445.18441409 399.75127113 438.3910465 398.078125 431.59765625 C397.88328773 430.80647778 397.68845047 430.0152993 397.48770905 429.20014572 C391.9086873 406.54810702 386.29398933 383.90489262 380.68251801 361.2608757 C379.23498096 355.41947634 377.78765627 349.57802436 376.34033203 343.73657227 C376.05368242 342.57964591 375.76703281 341.42271955 375.47169685 340.23073483 C374.89280453 337.8942979 374.31391468 335.55786035 373.73502731 333.2214222 C373.15636004 330.88587395 372.57768827 328.55032682 371.99901199 326.21478081 C366.29549282 303.19514555 360.59426541 280.17494426 354.89828491 257.15344238 C353.94583123 253.30399651 352.99305517 249.45463068 352.03994751 245.60534668 C350.92078393 241.08537531 349.8023251 236.56523006 348.68433762 232.04496765 C348.28817963 230.44364267 347.89181536 228.84236869 347.49516678 227.24116516 C342.60727625 207.50780573 337.81727344 187.7508211 333 168 C365.67 168 398.34 168 432 168 C432 122.46 432 76.92 432 30 C299.34 30 166.68 30 30 30 Z " fill="#E7D2A2" transform="translate(6,4)"/>
</svg>
